<svg width="11" height="11" viewBox="0 0 11 11" fill="none" xmlns="http://www.w3.org/2000/svg">
<path d="M0.464871 9.47451C0.169327 9.76473 0.169327 10.2353 0.464871 10.5255C0.760415 10.8157 1.23959 10.8157 1.53513 10.5255L0.464871 9.47451ZM10.9492 0.97324C10.9492 0.562809 10.6104 0.230089 10.1924 0.230089H3.38131C2.96334 0.230089 2.62452 0.562809 2.62452 0.97324C2.62452 1.38367 2.96334 1.71639 3.38131 1.71639H9.4356V7.6616C9.4356 8.07203 9.77443 8.40475 10.1924 8.40475C10.6104 8.40475 10.9492 8.07203 10.9492 7.6616V0.97324ZM1.53513 10.5255L10.7275 1.49873L9.65726 0.447753L0.464871 9.47451L1.53513 10.5255Z" fill="#F2F2F2"/>
</svg>
