<svg width="237" height="122" viewBox="0 0 237 122" fill="none" xmlns="http://www.w3.org/2000/svg">
<path d="M29.1435 79.974C29.4982 80.03 29.8202 80.1747 30.1095 80.408C30.4082 80.6413 30.6415 80.9307 30.8095 81.276C30.9869 81.6213 31.0755 81.99 31.0755 82.382C31.0755 82.8767 30.9495 83.3247 30.6975 83.726C30.4455 84.118 30.0769 84.4307 29.5915 84.664C29.1155 84.888 28.5509 85 27.8975 85H24.2575V75.242H27.7575C28.4202 75.242 28.9849 75.354 29.4515 75.578C29.9182 75.7927 30.2682 76.0867 30.5015 76.46C30.7349 76.8333 30.8515 77.2533 30.8515 77.72C30.8515 78.2987 30.6929 78.7793 30.3755 79.162C30.0675 79.5353 29.6569 79.806 29.1435 79.974ZM25.5315 79.456H27.6735C28.2709 79.456 28.7329 79.316 29.0595 79.036C29.3862 78.756 29.5495 78.3687 29.5495 77.874C29.5495 77.3793 29.3862 76.992 29.0595 76.712C28.7329 76.432 28.2615 76.292 27.6455 76.292H25.5315V79.456ZM27.7855 83.95C28.4202 83.95 28.9149 83.8007 29.2695 83.502C29.6242 83.2033 29.8015 82.788 29.8015 82.256C29.8015 81.7147 29.6149 81.29 29.2415 80.982C28.8682 80.6647 28.3689 80.506 27.7435 80.506H25.5315V83.95H27.7855ZM37.1275 76.278V79.54H40.6835V80.59H37.1275V83.95H41.1035V85H35.8535V75.228H41.1035V76.278H37.1275ZM47.3152 83.964H50.7312V85H46.0412V75.242H47.3152V83.964ZM56.3682 75.242V85H55.0942V75.242H56.3682ZM62.8235 76.278V79.54H66.3795V80.59H62.8235V83.95H66.7995V85H61.5495V75.228H66.7995V76.278H62.8235ZM79.8012 75.242L76.1192 85H74.6492L70.9672 75.242H72.3252L75.3912 83.656L78.4572 75.242H79.8012ZM85.4822 76.278V79.54H89.0382V80.59H85.4822V83.95H89.4582V85H84.2082V75.228H89.4582V76.278H85.4822ZM102.412 75.242V85H101.138V75.242H102.412ZM115.266 85H113.992L108.868 77.23V85H107.594V75.228H108.868L113.992 82.984V75.228H115.266V85ZM134.022 75.242L130.844 81.318V85H129.57V81.318L126.378 75.242H127.792L130.2 80.184L132.608 75.242H134.022ZM142.8 85.098C141.894 85.098 141.068 84.888 140.322 84.468C139.575 84.0387 138.982 83.446 138.544 82.69C138.114 81.9247 137.9 81.066 137.9 80.114C137.9 79.162 138.114 78.308 138.544 77.552C138.982 76.7867 139.575 76.194 140.322 75.774C141.068 75.3447 141.894 75.13 142.8 75.13C143.714 75.13 144.545 75.3447 145.292 75.774C146.038 76.194 146.626 76.782 147.056 77.538C147.485 78.294 147.7 79.1527 147.7 80.114C147.7 81.0753 147.485 81.934 147.056 82.69C146.626 83.446 146.038 84.0387 145.292 84.468C144.545 84.888 143.714 85.098 142.8 85.098ZM142.8 83.992C143.481 83.992 144.092 83.8333 144.634 83.516C145.184 83.1987 145.614 82.746 145.922 82.158C146.239 81.57 146.398 80.8887 146.398 80.114C146.398 79.33 146.239 78.6487 145.922 78.07C145.614 77.482 145.189 77.0293 144.648 76.712C144.106 76.3947 143.49 76.236 142.8 76.236C142.109 76.236 141.493 76.3947 140.952 76.712C140.41 77.0293 139.981 77.482 139.664 78.07C139.356 78.6487 139.202 79.33 139.202 80.114C139.202 80.8887 139.356 81.57 139.664 82.158C139.981 82.746 140.41 83.1987 140.952 83.516C141.502 83.8333 142.118 83.992 142.8 83.992ZM153.637 75.242V81.416C153.637 82.284 153.847 82.928 154.267 83.348C154.697 83.768 155.289 83.978 156.045 83.978C156.792 83.978 157.375 83.768 157.795 83.348C158.225 82.928 158.439 82.284 158.439 81.416V75.242H159.713V81.402C159.713 82.214 159.55 82.9 159.223 83.46C158.897 84.0107 158.453 84.4213 157.893 84.692C157.343 84.9627 156.722 85.098 156.031 85.098C155.341 85.098 154.715 84.9627 154.155 84.692C153.605 84.4213 153.166 84.0107 152.839 83.46C152.522 82.9 152.363 82.214 152.363 81.402V75.242H153.637ZM169.987 85L167.663 81.01H166.123V85H164.849V75.242H167.999C168.736 75.242 169.357 75.368 169.861 75.62C170.374 75.872 170.757 76.2127 171.009 76.642C171.261 77.0713 171.387 77.5613 171.387 78.112C171.387 78.784 171.191 79.3767 170.799 79.89C170.416 80.4033 169.837 80.744 169.063 80.912L171.513 85H169.987ZM166.123 79.988H167.999C168.689 79.988 169.207 79.82 169.553 79.484C169.898 79.1387 170.071 78.6813 170.071 78.112C170.071 77.5333 169.898 77.0853 169.553 76.768C169.217 76.4507 168.699 76.292 167.999 76.292H166.123V79.988ZM179.47 85.098C178.826 85.098 178.248 84.986 177.734 84.762C177.23 84.5287 176.834 84.2113 176.544 83.81C176.255 83.3993 176.106 82.928 176.096 82.396H177.454C177.501 82.8533 177.688 83.2407 178.014 83.558C178.35 83.866 178.836 84.02 179.47 84.02C180.077 84.02 180.553 83.8707 180.898 83.572C181.253 83.264 181.43 82.872 181.43 82.396C181.43 82.0227 181.328 81.7193 181.122 81.486C180.917 81.2527 180.66 81.0753 180.352 80.954C180.044 80.8327 179.629 80.702 179.106 80.562C178.462 80.394 177.944 80.226 177.552 80.058C177.17 79.89 176.838 79.6287 176.558 79.274C176.288 78.91 176.152 78.4247 176.152 77.818C176.152 77.286 176.288 76.8147 176.558 76.404C176.829 75.9933 177.207 75.676 177.692 75.452C178.187 75.228 178.752 75.116 179.386 75.116C180.301 75.116 181.048 75.3447 181.626 75.802C182.214 76.2593 182.546 76.866 182.62 77.622H181.22C181.174 77.2487 180.978 76.922 180.632 76.642C180.287 76.3527 179.83 76.208 179.26 76.208C178.728 76.208 178.294 76.348 177.958 76.628C177.622 76.8987 177.454 77.2813 177.454 77.776C177.454 78.1307 177.552 78.42 177.748 78.644C177.954 78.868 178.201 79.0407 178.49 79.162C178.789 79.274 179.204 79.4047 179.736 79.554C180.38 79.7313 180.898 79.9087 181.29 80.086C181.682 80.254 182.018 80.52 182.298 80.884C182.578 81.2387 182.718 81.724 182.718 82.34C182.718 82.816 182.592 83.264 182.34 83.684C182.088 84.104 181.715 84.4447 181.22 84.706C180.726 84.9673 180.142 85.098 179.47 85.098ZM188.877 76.278V79.54H192.433V80.59H188.877V83.95H192.853V85H187.603V75.228H192.853V76.278H188.877ZM199.065 83.964H202.481V85H197.791V75.242H199.065V83.964ZM212.36 75.242V76.278H208.118V79.568H211.562V80.604H208.118V85H206.844V75.242H212.36Z" fill="#F2F2F2"/>
<path d="M60.008 44.728L53.42 70H45.968L41.936 53.368L37.76 70H30.308L23.9 44.728H30.488L34.124 63.124L38.624 44.728H45.392L49.712 63.124L53.384 44.728H60.008ZM75.0473 70.252C72.6713 70.252 70.4873 69.7 68.4953 68.596C66.5273 67.492 64.9553 65.956 63.7793 63.988C62.6273 61.996 62.0513 59.764 62.0513 57.292C62.0513 54.82 62.6273 52.6 63.7793 50.632C64.9553 48.664 66.5273 47.128 68.4953 46.024C70.4873 44.92 72.6713 44.368 75.0473 44.368C77.4233 44.368 79.5953 44.92 81.5633 46.024C83.5553 47.128 85.1153 48.664 86.2433 50.632C87.3953 52.6 87.9713 54.82 87.9713 57.292C87.9713 59.764 87.3953 61.996 86.2433 63.988C85.0913 65.956 83.5313 67.492 81.5633 68.596C79.5953 69.7 77.4233 70.252 75.0473 70.252ZM75.0473 64.636C77.0633 64.636 78.6713 63.964 79.8713 62.62C81.0953 61.276 81.7073 59.5 81.7073 57.292C81.7073 55.06 81.0953 53.284 79.8713 51.964C78.6713 50.62 77.0633 49.948 75.0473 49.948C73.0073 49.948 71.3753 50.608 70.1513 51.928C68.9513 53.248 68.3513 55.036 68.3513 57.292C68.3513 59.524 68.9513 61.312 70.1513 62.656C71.3753 63.976 73.0073 64.636 75.0473 64.636ZM104.284 70L99.0281 60.46H97.5521V70H91.3961V44.728H101.728C103.72 44.728 105.412 45.076 106.804 45.772C108.22 46.468 109.276 47.428 109.972 48.652C110.668 49.852 111.016 51.196 111.016 52.684C111.016 54.364 110.536 55.864 109.576 57.184C108.64 58.504 107.248 59.44 105.4 59.992L111.232 70H104.284ZM97.5521 56.104H101.368C102.496 56.104 103.336 55.828 103.888 55.276C104.464 54.724 104.752 53.944 104.752 52.936C104.752 51.976 104.464 51.22 103.888 50.668C103.336 50.116 102.496 49.84 101.368 49.84H97.5521V56.104ZM129.532 70L121.036 58.84V70H114.88V44.728H121.036V55.816L129.46 44.728H136.696L126.904 57.112L137.056 70H129.532Z" fill="#F2F2F2"/>
<path d="M151.934 70.252C149.558 70.252 147.374 69.7 145.382 68.596C143.414 67.492 141.842 65.956 140.666 63.988C139.514 61.996 138.938 59.764 138.938 57.292C138.938 54.82 139.514 52.6 140.666 50.632C141.842 48.664 143.414 47.128 145.382 46.024C147.374 44.92 149.558 44.368 151.934 44.368C154.31 44.368 156.482 44.92 158.45 46.024C160.442 47.128 162.002 48.664 163.13 50.632C164.282 52.6 164.858 54.82 164.858 57.292C164.858 59.764 164.282 61.996 163.13 63.988C161.978 65.956 160.418 67.492 158.45 68.596C156.482 69.7 154.31 70.252 151.934 70.252ZM151.934 64.636C153.95 64.636 155.558 63.964 156.758 62.62C157.982 61.276 158.594 59.5 158.594 57.292C158.594 55.06 157.982 53.284 156.758 51.964C155.558 50.62 153.95 49.948 151.934 49.948C149.894 49.948 148.262 50.608 147.038 51.928C145.838 53.248 145.238 55.036 145.238 57.292C145.238 59.524 145.838 61.312 147.038 62.656C148.262 63.976 149.894 64.636 151.934 64.636ZM174.331 44.728V59.848C174.331 61.36 174.703 62.524 175.447 63.34C176.191 64.156 177.283 64.564 178.723 64.564C180.163 64.564 181.267 64.156 182.035 63.34C182.803 62.524 183.187 61.36 183.187 59.848V44.728H189.343V59.812C189.343 62.068 188.863 63.976 187.903 65.536C186.943 67.096 185.647 68.272 184.015 69.064C182.407 69.856 180.607 70.252 178.615 70.252C176.623 70.252 174.835 69.868 173.251 69.1C171.691 68.308 170.455 67.132 169.543 65.572C168.631 63.988 168.175 62.068 168.175 59.812V44.728H174.331ZM211.846 44.728V49.66H205.15V70H198.994V49.66H192.298V44.728H211.846Z" fill="#F2F2F2"/>
<path d="M151.934 70.252C149.558 70.252 147.374 69.7 145.382 68.596C143.414 67.492 141.842 65.956 140.666 63.988C139.514 61.996 138.938 59.764 138.938 57.292C138.938 54.82 139.514 52.6 140.666 50.632C141.842 48.664 143.414 47.128 145.382 46.024C147.374 44.92 149.558 44.368 151.934 44.368C154.31 44.368 156.482 44.92 158.45 46.024C160.442 47.128 162.002 48.664 163.13 50.632C164.282 52.6 164.858 54.82 164.858 57.292C164.858 59.764 164.282 61.996 163.13 63.988C161.978 65.956 160.418 67.492 158.45 68.596C156.482 69.7 154.31 70.252 151.934 70.252ZM151.934 64.636C153.95 64.636 155.558 63.964 156.758 62.62C157.982 61.276 158.594 59.5 158.594 57.292C158.594 55.06 157.982 53.284 156.758 51.964C155.558 50.62 153.95 49.948 151.934 49.948C149.894 49.948 148.262 50.608 147.038 51.928C145.838 53.248 145.238 55.036 145.238 57.292C145.238 59.524 145.838 61.312 147.038 62.656C148.262 63.976 149.894 64.636 151.934 64.636ZM174.331 44.728V59.848C174.331 61.36 174.703 62.524 175.447 63.34C176.191 64.156 177.283 64.564 178.723 64.564C180.163 64.564 181.267 64.156 182.035 63.34C182.803 62.524 183.187 61.36 183.187 59.848V44.728H189.343V59.812C189.343 62.068 188.863 63.976 187.903 65.536C186.943 67.096 185.647 68.272 184.015 69.064C182.407 69.856 180.607 70.252 178.615 70.252C176.623 70.252 174.835 69.868 173.251 69.1C171.691 68.308 170.455 67.132 169.543 65.572C168.631 63.988 168.175 62.068 168.175 59.812V44.728H174.331ZM211.846 44.728V49.66H205.15V70H198.994V49.66H192.298V44.728H211.846Z" fill="#F24B88"/>
<rect x="1" y="1" width="235" height="120" stroke="#F2F2F2" stroke-width="2"/>
</svg>
